  <svg xmlns="http://www.w3.org/2000/svg" xmlns:xlink="http://www.w3.org/1999/xlink" version="1.1" viewBox="-168 36 540 216" width="540px" height="216px">
   <defs>
    <g>
     <filter y="-50%" height="200%">
      <fedropshadow dx="0" dy="2" stdDeviation="6" flood-opacity="0.03" flood-color="#000000">
      </fedropshadow>
     </filter>
     <filter y="-50%" height="200%">
      <fedropshadow dx="0" dy="2" stdDeviation="6" flood-opacity="0.09" flood-color="#000000">
      </fedropshadow>
     </filter>
     <filter y="-50%" height="200%">
      <fedropshadow dx="0" dy="2" stdDeviation="6" flood-opacity="0.12" flood-color="#000000">
      </fedropshadow>
     </filter>
     <filter y="-50%" height="200%">
      <fedropshadow dx="0" dy="2" stdDeviation="6" flood-opacity="0.16" flood-color="#000000">
      </fedropshadow>
     </filter>
     <filter y="-50%" height="200%">
      <fedropshadow dx="0" dy="3" stdDeviation="8" flood-opacity="0.06" flood-color="#000000">
      </fedropshadow>
     </filter>
     <filter y="-50%" height="200%">
      <fedropshadow dx="0" dy="2" stdDeviation="6" flood-opacity="0.03" flood-color="#000000">
      </fedropshadow>
     </filter>
     <filter y="-50%" height="200%">
      <fedropshadow dx="0" dy="2" stdDeviation="6" flood-opacity="0.08" flood-color="#000000">
      </fedropshadow>
     </filter>
     <filter y="-50%" height="200%">
      <fedropshadow dx="0" dy="2" stdDeviation="6" flood-opacity="0.08" flood-color="#000000">
      </fedropshadow>
     </filter>
    </g>
   </defs>
   <g>
    <rect x="-168" y="36" width="540" height="216" rx="3" ry="3" fill="#FFFFFF" filter="url(#white-fill-shadow)">
    </rect>
    <g>
     <rect x="-168" y="36" width="540" height="216" rx="3" ry="3" fill="#FFFFFF">
     </rect>
    </g>
    <g>
     <g>
      <g>
       <rect x="-132" y="138" width="180" height="36" rx="3" ry="3" fill="#e0defd">
       </rect>
       <rect y="138" rx="3" stroke="#6558F5" fill="none" stroke-linejoin="round" width="180" stroke-linecap="round" stroke-width="2" x="-132" ry="3" height="36">
       </rect>
       <g class="content">
        <g>
         <g>
          <g>
           <g>
            <g>
            </g>
            <text fill="#293845" hover-props="{}">
             <tspan x="-72.92431640625" y="162.5" font-family="DIN Next, system-ui, sans-serif" font-size="18" font-style="normal" font-weight="normal">
              
              
              
              Account
             </tspan>
            </text>
           </g>
          </g>
         </g>
        </g>
       </g>
      </g>
     </g>
     <g>
      <g class="content">
       <g>
        <g>
         <g>
          <g>
           <g>
           </g>
           <text fill="#293845" hover-props="{}">
            <tspan x="-132" y="132.5" font-family="DIN Next, system-ui, sans-serif" font-size="18" font-style="normal" font-weight="normal">
             
             
             
             Address
            </tspan>
           </text>
          </g>
         </g>
        </g>
       </g>
      </g>
     </g>
     <g>
      <g>
       <path d="M84,84c-6.62741,0 -12,5.37259 -12,12c0,6.62741 0,41.37259 0,48c0,6.62741 -5.37259,12 -12,12c-6.62741,0 0,0 0,0c0,0 -6.62741,0 0,0c6.62741,0 12,5.37259 12,12c0,6.62741 0,41.37259 0,48c0,6.62741 5.37259,12 12,12" fill="rgba(0,0,0,0)">
       </path>
       <path d="M84,84c-6.62741,0 -12,5.37259 -12,12c0,6.62741 0,41.37259 0,48c0,6.62741 -5.37259,12 -12,12c-6.62741,0 0,0 0,0c0,0 -6.62741,0 0,0c6.62741,0 12,5.37259 12,12c0,6.62741 0,41.37259 0,48c0,6.62741 5.37259,12 12,12" fill="none" stroke="#788896" stroke-linecap="round" stroke-linejoin="round" stroke-width="2">
       </path>
      </g>
     </g>
     <g>
      <g>
       <rect x="96" y="84" width="240" height="36" rx="3" ry="3" fill="#F2F5F7">
       </rect>
       <rect y="84" rx="3" stroke="#C3CFD9" fill="none" stroke-linejoin="round" width="240" stroke-linecap="round" stroke-width="2" x="96" ry="3" height="36">
       </rect>
       <g class="content">
        <g>
         <g>
          <g>
           <g>
            <g>
            </g>
            <text fill="#293845" hover-props="{}">
             <tspan x="108" y="108.5" font-family="DIN Next, system-ui, sans-serif" font-size="18" font-style="normal" font-weight="normal">
              
              
              
              Data: Bytes
             </tspan>
            </text>
           </g>
          </g>
         </g>
        </g>
       </g>
      </g>
     </g>
     <g>
      <g class="content">
       <g>
        <g>
         <g>
          <g>
           <g>
           </g>
           <text fill="#293845" hover-props="{}">
            <tspan x="96" y="78.5" font-family="DIN Next, system-ui, sans-serif" font-size="18" font-style="normal" font-weight="normal">
             
             
             
             AccountInfo
            </tspan>
           </text>
          </g>
         </g>
        </g>
       </g>
      </g>
     </g>
     <g>
      <g>
       <rect x="96" y="120" width="240" height="36" rx="3" ry="3" fill="#F2F5F7">
       </rect>
       <rect y="120" rx="3" stroke="#C3CFD9" fill="none" stroke-linejoin="round" width="240" stroke-linecap="round" stroke-width="2" x="96" ry="3" height="36">
       </rect>
       <g class="content">
        <g>
         <g>
          <g>
           <g>
            <g>
            </g>
            <text fill="#293845" hover-props="{}">
             <tspan x="108" y="144.5" font-family="DIN Next, system-ui, sans-serif" font-size="18" font-style="normal" font-weight="normal">
              
              
              
              Executable: Boolean
             </tspan>
            </text>
           </g>
          </g>
         </g>
        </g>
       </g>
      </g>
     </g>
     <g>
      <g>
       <rect x="96" y="156" width="240" height="36" rx="3" ry="3" fill="#F2F5F7">
       </rect>
       <rect y="156" rx="3" stroke="#C3CFD9" fill="none" stroke-linejoin="round" width="240" stroke-linecap="round" stroke-width="2" x="96" ry="3" height="36">
       </rect>
       <g class="content">
        <g>
         <g>
          <g>
           <g>
            <g>
            </g>
            <text fill="#293845" hover-props="{}">
             <tspan x="108" y="180.5" font-family="DIN Next, system-ui, sans-serif" font-size="18" font-style="normal" font-weight="normal">
              
              
              
              Lamports: Number
             </tspan>
            </text>
           </g>
          </g>
         </g>
        </g>
       </g>
      </g>
     </g>
     <g>
      <g>
       <rect x="96" y="192" width="240" height="36" rx="3" ry="3" fill="#F2F5F7">
       </rect>
       <rect y="192" rx="3" stroke="#C3CFD9" fill="none" stroke-linejoin="round" width="240" stroke-linecap="round" stroke-width="2" x="96" ry="3" height="36">
       </rect>
       <g class="content">
        <g>
         <g>
          <g>
           <g>
            <g>
            </g>
            <text fill="#293845" hover-props="{}">
             <tspan x="108" y="216.5" font-family="DIN Next, system-ui, sans-serif" font-size="18" font-style="normal" font-weight="normal">
              
              
              
              Owner: Program Address
             </tspan>
            </text>
           </g>
          </g>
         </g>
        </g>
       </g>
      </g>
     </g>
    </g>
   </g>
  </svg>
